<svg xmlns="http://www.w3.org/2000/svg" viewBox="0 0 720 220" role="img" aria-label="Dawn AI horizontal logo">
  <title>Dawn AI horizontal logo</title>
  <style>text { font-family: Inter, Satoshi, Helvetica Neue, Arial, sans-serif; font-weight: 650; }</style>
  
  <g transform="translate(18 20) scale(0.9)" fill="#000000">
    <path d="M 39.69 39.49 L 38.57 39.81 L 37.49 40.19 L 36.45 40.63 L 35.44 41.13 L 34.47 41.69 L 33.53 42.30 L 32.63 42.97 L 31.76 43.69 L 30.92 44.45 L 30.12 45.26 L 29.34 46.11 L 28.59 47.00 L 27.87 47.92 L 27.18 48.88 L 26.51 49.87 L 25.87 50.89 L 25.26 51.93 L 24.66 53.00 L 24.09 54.09 L 23.54 55.20 L 23.01 56.32 L 22.50 57.45 L 22.01 58.59 L 21.54 59.74 L 21.08 60.90 L 20.64 62.06 L 20.22 63.22 L 19.82 64.38 L 19.43 65.55 L 19.07 66.71 L 18.73 67.88 L 18.42 69.05 L 18.13 70.21 L 17.87 71.38 L 17.63 72.55 L 17.42 73.72 L 17.25 74.88 L 17.10 76.05 L 16.99 77.21 L 16.91 78.37 L 16.86 79.53 L 16.86 80.69 L 16.88 81.84 L 16.95 82.99 L 17.06 84.14 L 17.21 85.28 L 17.40 86.42 L 17.63 87.55 L 17.89 88.68 L 18.20 89.80 L 18.54 90.91 L 18.92 92.01 L 19.33 93.10 L 19.78 94.18 L 20.27 95.25 L 20.79 96.31 L 21.34 97.35 L 21.92 98.38 L 22.53 99.40 L 23.17 100.40 L 23.85 101.38 L 24.55 102.35 L 25.28 103.30 L 26.04 104.23 L 26.83 105.14 L 27.64 106.03 L 28.47 106.90 L 29.33 107.75 L 30.22 108.58 L 31.13 109.38 L 32.06 110.16 L 33.01 110.91 L 33.98 111.63 L 34.97 112.33 L 35.98 113.01 L 37.01 113.65 L 38.06 114.26 L 39.13 114.85 L 40.21 115.40 L 41.30 115.92 L 42.42 116.41 L 43.54 116.87 L 44.68 117.29 L 45.83 117.68 L 46.99 118.03 L 48.17 118.34 L 49.35 118.62 L 50.54 118.86 L 51.75 119.06 L 52.96 119.21 L 54.17 119.33 L 55.40 119.41 L 56.61 119.44 L 57.82 119.41 L 59.01 119.32 L 60.17 119.16 L 61.30 118.93 L 62.39 118.61 L 63.42 118.21 L 64.40 117.72 L 65.31 117.12 L 66.14 116.42 L 66.90 115.61 L 67.57 114.72 L 68.17 113.75 L 68.68 112.71 L 69.12 111.62 L 69.47 110.49 L 69.73 109.33 L 69.91 108.15 L 70.00 106.97 L 70.01 105.78 L 69.93 104.62 L 69.76 103.49 L 69.50 102.37 L 69.17 101.29 L 68.77 100.22 L 68.30 99.18 L 67.77 98.15 L 67.19 97.14 L 66.55 96.15 L 65.87 95.17 L 65.15 94.20 L 64.40 93.24 L 63.62 92.30 L 62.82 91.35 L 62.00 90.42 L 61.17 89.49 L 60.34 88.56 L 59.50 87.63 L 58.67 86.70 L 57.85 85.76 L 57.05 84.82 L 56.27 83.88 L 55.51 82.93 L 54.79 81.96 L 54.11 80.99 L 53.47 80.00 L 52.87 79.01 L 52.31 77.99 L 51.80 76.97 L 51.32 75.93 L 50.89 74.87 L 50.49 73.81 L 50.13 72.73 L 49.81 71.63 L 49.52 70.52 L 49.27 69.40 L 49.05 68.26 L 48.87 67.11 L 48.72 65.94 L 48.60 64.76 L 48.51 63.56 L 48.45 62.35 L 48.42 61.12 L 48.41 59.88 L 48.44 58.62 L 48.49 57.35 L 48.56 56.06 L 48.66 54.76 L 48.76 53.45 L 48.85 52.14 L 48.92 50.85 L 48.97 49.56 L 48.96 48.29 L 48.91 47.05 L 48.78 45.85 L 48.58 44.68 L 48.28 43.56 L 47.89 42.50 L 47.38 41.55 L 46.77 40.71 L 46.04 40.03 L 45.18 39.52 L 44.21 39.22 L 43.14 39.09 L 42.00 39.11 L 40.84 39.25 L 39.69 39.49 Z"/>
<path d="M 91.83 10.60 L 90.62 10.85 L 89.42 11.11 L 88.22 11.40 L 87.03 11.70 L 85.84 12.03 L 84.66 12.39 L 83.50 12.76 L 82.34 13.16 L 81.20 13.59 L 80.07 14.04 L 78.96 14.51 L 77.86 15.02 L 76.78 15.54 L 75.73 16.10 L 74.69 16.68 L 73.68 17.30 L 72.69 17.94 L 71.72 18.61 L 70.78 19.30 L 69.88 20.03 L 69.00 20.79 L 68.15 21.59 L 67.33 22.41 L 66.55 23.27 L 65.80 24.15 L 65.08 25.07 L 64.40 26.02 L 63.75 26.99 L 63.13 28.00 L 62.54 29.02 L 61.98 30.07 L 61.45 31.15 L 60.95 32.24 L 60.48 33.35 L 60.03 34.49 L 59.61 35.63 L 59.22 36.80 L 58.85 37.98 L 58.51 39.17 L 58.19 40.38 L 57.89 41.59 L 57.62 42.82 L 57.37 44.05 L 57.14 45.29 L 56.93 46.54 L 56.74 47.79 L 56.57 49.04 L 56.43 50.29 L 56.31 51.54 L 56.22 52.80 L 56.16 54.04 L 56.13 55.29 L 56.13 56.53 L 56.18 57.76 L 56.26 58.98 L 56.39 60.20 L 56.56 61.40 L 56.78 62.59 L 57.05 63.76 L 57.38 64.93 L 57.76 66.07 L 58.19 67.20 L 58.69 68.30 L 59.25 69.39 L 59.87 70.45 L 60.57 71.50 L 61.33 72.51 L 62.15 73.49 L 63.03 74.41 L 63.96 75.28 L 64.93 76.08 L 65.93 76.80 L 66.96 77.43 L 68.02 77.96 L 69.09 78.37 L 70.17 78.66 L 71.25 78.81 L 72.33 78.82 L 73.39 78.68 L 74.44 78.41 L 75.48 78.01 L 76.49 77.50 L 77.48 76.89 L 78.44 76.18 L 79.37 75.40 L 80.27 74.54 L 81.12 73.63 L 81.94 72.67 L 82.70 71.67 L 83.42 70.65 L 84.09 69.60 L 84.72 68.54 L 85.31 67.46 L 85.86 66.36 L 86.39 65.25 L 86.89 64.13 L 87.37 63.00 L 87.83 61.87 L 88.27 60.73 L 88.71 59.60 L 89.14 58.46 L 89.58 57.33 L 90.01 56.21 L 90.45 55.09 L 90.91 53.98 L 91.38 52.89 L 91.87 51.82 L 92.39 50.76 L 92.93 49.72 L 93.51 48.70 L 94.12 47.71 L 94.77 46.75 L 95.47 45.82 L 96.22 44.91 L 97.01 44.04 L 97.84 43.19 L 98.70 42.37 L 99.61 41.58 L 100.54 40.80 L 101.50 40.05 L 102.49 39.32 L 103.51 38.61 L 104.54 37.91 L 105.60 37.23 L 106.67 36.56 L 107.75 35.91 L 108.84 35.27 L 109.93 34.64 L 111.04 34.01 L 112.14 33.39 L 113.24 32.78 L 114.34 32.17 L 115.43 31.56 L 116.51 30.96 L 117.57 30.35 L 118.62 29.74 L 119.66 29.13 L 120.66 28.51 L 121.63 27.86 L 122.53 27.17 L 123.35 26.41 L 124.08 25.57 L 124.69 24.63 L 125.16 23.58 L 125.50 22.46 L 125.69 21.32 L 125.71 20.18 L 125.58 19.08 L 125.27 18.06 L 124.81 17.12 L 124.21 16.24 L 123.48 15.44 L 122.64 14.70 L 121.70 14.02 L 120.68 13.41 L 119.60 12.85 L 118.46 12.34 L 117.28 11.88 L 116.09 11.47 L 114.88 11.10 L 113.67 10.77 L 112.46 10.48 L 111.25 10.23 L 110.04 10.01 L 108.83 9.84 L 107.61 9.69 L 106.40 9.59 L 105.18 9.52 L 103.97 9.47 L 102.75 9.46 L 101.53 9.48 L 100.32 9.53 L 99.10 9.61 L 97.89 9.72 L 96.67 9.85 L 95.46 10.00 L 94.25 10.18 L 93.04 10.38 L 91.83 10.60 Z"/>
<path d="M 138.78 32.21 L 137.60 32.25 L 136.43 32.34 L 135.27 32.46 L 134.11 32.62 L 132.96 32.82 L 131.81 33.05 L 130.67 33.32 L 129.54 33.63 L 128.41 33.97 L 127.30 34.35 L 126.19 34.76 L 125.09 35.21 L 124.00 35.69 L 122.92 36.21 L 121.86 36.76 L 120.80 37.34 L 119.76 37.96 L 118.72 38.61 L 117.71 39.29 L 116.70 40.00 L 115.71 40.75 L 114.73 41.53 L 113.77 42.33 L 112.82 43.17 L 111.90 44.04 L 111.00 44.93 L 110.13 45.85 L 109.30 46.78 L 108.51 47.74 L 107.75 48.72 L 107.05 49.71 L 106.40 50.71 L 105.80 51.72 L 105.26 52.75 L 104.79 53.78 L 104.39 54.82 L 104.06 55.86 L 103.80 56.90 L 103.63 57.94 L 103.54 58.97 L 103.55 60.01 L 103.64 61.03 L 103.84 62.05 L 104.14 63.05 L 104.54 64.04 L 105.06 65.02 L 105.68 65.97 L 106.41 66.90 L 107.22 67.79 L 108.11 68.64 L 109.08 69.43 L 110.11 70.16 L 111.19 70.83 L 112.31 71.41 L 113.46 71.92 L 114.64 72.33 L 115.83 72.64 L 117.03 72.84 L 118.23 72.94 L 119.43 72.95 L 120.64 72.89 L 121.85 72.77 L 123.06 72.61 L 124.27 72.42 L 125.49 72.21 L 126.72 72.00 L 127.95 71.80 L 129.18 71.63 L 130.42 71.50 L 131.66 71.40 L 132.90 71.33 L 134.15 71.29 L 135.39 71.29 L 136.63 71.31 L 137.87 71.37 L 139.10 71.46 L 140.32 71.58 L 141.53 71.73 L 142.74 71.91 L 143.93 72.12 L 145.11 72.36 L 146.28 72.63 L 147.43 72.93 L 148.56 73.25 L 149.68 73.61 L 150.77 73.99 L 151.84 74.39 L 152.89 74.83 L 153.92 75.29 L 154.94 75.78 L 155.94 76.29 L 156.93 76.84 L 157.92 77.40 L 158.91 77.99 L 159.90 78.61 L 160.91 79.25 L 161.92 79.92 L 162.95 80.61 L 164.00 81.33 L 165.07 82.07 L 166.16 82.81 L 167.27 83.54 L 168.37 84.24 L 169.48 84.90 L 170.58 85.48 L 171.67 85.99 L 172.74 86.38 L 173.78 86.66 L 174.79 86.80 L 175.76 86.78 L 176.69 86.59 L 177.57 86.22 L 178.40 85.68 L 179.16 85.00 L 179.86 84.20 L 180.50 83.29 L 181.05 82.29 L 181.53 81.22 L 181.92 80.10 L 182.22 78.94 L 182.42 77.77 L 182.53 76.59 L 182.54 75.43 L 182.45 74.29 L 182.28 73.15 L 182.04 72.02 L 181.74 70.89 L 181.38 69.77 L 180.98 68.66 L 180.54 67.55 L 180.07 66.44 L 179.58 65.33 L 179.08 64.22 L 178.58 63.11 L 178.07 61.99 L 177.54 60.88 L 177.01 59.77 L 176.47 58.67 L 175.92 57.57 L 175.35 56.48 L 174.77 55.40 L 174.18 54.33 L 173.57 53.26 L 172.95 52.22 L 172.31 51.18 L 171.65 50.16 L 170.98 49.16 L 170.28 48.17 L 169.57 47.21 L 168.83 46.26 L 168.07 45.34 L 167.30 44.44 L 166.49 43.57 L 165.67 42.72 L 164.82 41.90 L 163.94 41.11 L 163.04 40.35 L 162.11 39.62 L 161.15 38.93 L 160.17 38.26 L 159.17 37.63 L 158.14 37.04 L 157.10 36.47 L 156.03 35.94 L 154.95 35.44 L 153.85 34.98 L 152.74 34.55 L 151.62 34.16 L 150.48 33.80 L 149.33 33.47 L 148.18 33.19 L 147.01 32.94 L 145.84 32.72 L 144.67 32.54 L 143.49 32.40 L 142.31 32.30 L 141.13 32.23 L 139.95 32.20 L 138.78 32.21 Z"/>
<path d="M 141.31 82.95 L 140.14 83.22 L 138.98 83.57 L 137.84 83.99 L 136.74 84.47 L 135.67 85.02 L 134.66 85.63 L 133.71 86.31 L 132.84 87.04 L 132.05 87.84 L 131.35 88.70 L 130.77 89.62 L 130.30 90.59 L 129.95 91.61 L 129.72 92.69 L 129.59 93.79 L 129.57 94.93 L 129.64 96.09 L 129.80 97.26 L 130.04 98.44 L 130.35 99.62 L 130.72 100.79 L 131.16 101.94 L 131.64 103.07 L 132.18 104.17 L 132.75 105.25 L 133.37 106.31 L 134.01 107.35 L 134.69 108.37 L 135.40 109.38 L 136.12 110.37 L 136.87 111.35 L 137.62 112.31 L 138.39 113.28 L 139.16 114.23 L 139.93 115.18 L 140.70 116.13 L 141.46 117.07 L 142.21 118.02 L 142.94 118.97 L 143.65 119.93 L 144.34 120.89 L 145.00 121.87 L 145.62 122.85 L 146.21 123.85 L 146.76 124.86 L 147.27 125.88 L 147.72 126.93 L 148.13 127.99 L 148.49 129.07 L 148.81 130.17 L 149.08 131.29 L 149.32 132.42 L 149.53 133.57 L 149.70 134.73 L 149.85 135.91 L 149.97 137.10 L 150.06 138.31 L 150.13 139.54 L 150.19 140.77 L 150.23 142.02 L 150.25 143.28 L 150.27 144.55 L 150.28 145.84 L 150.28 147.14 L 150.28 148.44 L 150.28 149.76 L 150.29 151.09 L 150.30 152.42 L 150.34 153.74 L 150.40 155.04 L 150.51 156.30 L 150.67 157.50 L 150.89 158.64 L 151.19 159.70 L 151.57 160.66 L 152.05 161.52 L 152.64 162.24 L 153.35 162.84 L 154.16 163.29 L 155.06 163.60 L 156.04 163.77 L 157.08 163.79 L 158.17 163.68 L 159.29 163.43 L 160.43 163.07 L 161.56 162.62 L 162.68 162.09 L 163.77 161.50 L 164.81 160.87 L 165.82 160.19 L 166.78 159.48 L 167.70 158.73 L 168.58 157.94 L 169.43 157.11 L 170.24 156.26 L 171.02 155.36 L 171.76 154.44 L 172.47 153.50 L 173.15 152.52 L 173.79 151.52 L 174.41 150.49 L 175.01 149.45 L 175.57 148.38 L 176.11 147.29 L 176.63 146.19 L 177.12 145.08 L 177.59 143.95 L 178.04 142.80 L 178.47 141.65 L 178.88 140.49 L 179.28 139.33 L 179.65 138.15 L 180.02 136.98 L 180.37 135.80 L 180.69 134.62 L 181.00 133.44 L 181.29 132.26 L 181.56 131.07 L 181.80 129.89 L 182.02 128.71 L 182.21 127.53 L 182.37 126.35 L 182.51 125.18 L 182.61 124.00 L 182.68 122.84 L 182.71 121.67 L 182.71 120.51 L 182.68 119.36 L 182.60 118.21 L 182.49 117.07 L 182.33 115.94 L 182.13 114.81 L 181.89 113.70 L 181.60 112.59 L 181.27 111.49 L 180.90 110.41 L 180.49 109.33 L 180.03 108.26 L 179.54 107.21 L 179.01 106.17 L 178.44 105.14 L 177.84 104.12 L 177.21 103.12 L 176.54 102.13 L 175.85 101.15 L 175.12 100.19 L 174.36 99.24 L 173.58 98.31 L 172.77 97.40 L 171.93 96.50 L 171.08 95.62 L 170.20 94.75 L 169.29 93.91 L 168.37 93.08 L 167.43 92.27 L 166.47 91.48 L 165.50 90.71 L 164.51 89.96 L 163.50 89.23 L 162.48 88.53 L 161.45 87.85 L 160.41 87.20 L 159.35 86.59 L 158.29 86.01 L 157.21 85.46 L 156.12 84.96 L 155.02 84.49 L 153.91 84.07 L 152.80 83.69 L 151.67 83.37 L 150.54 83.09 L 149.40 82.86 L 148.26 82.69 L 147.11 82.58 L 145.96 82.52 L 144.80 82.53 L 143.64 82.60 L 142.47 82.74 L 141.31 82.95 Z"/>
<path d="M 123.63 124.01 L 122.60 124.35 L 121.61 124.81 L 120.67 125.35 L 119.77 125.99 L 118.91 126.71 L 118.09 127.49 L 117.31 128.34 L 116.58 129.25 L 115.89 130.20 L 115.24 131.19 L 114.63 132.20 L 114.06 133.24 L 113.53 134.29 L 113.04 135.34 L 112.58 136.41 L 112.14 137.48 L 111.72 138.55 L 111.31 139.62 L 110.91 140.68 L 110.51 141.75 L 110.11 142.81 L 109.70 143.86 L 109.27 144.90 L 108.81 145.92 L 108.34 146.94 L 107.84 147.94 L 107.32 148.93 L 106.77 149.91 L 106.20 150.87 L 105.60 151.82 L 104.98 152.75 L 104.34 153.67 L 103.67 154.57 L 102.97 155.46 L 102.25 156.34 L 101.51 157.19 L 100.73 158.04 L 99.94 158.86 L 99.11 159.67 L 98.26 160.47 L 97.38 161.24 L 96.48 162.00 L 95.55 162.74 L 94.59 163.47 L 93.60 164.17 L 92.59 164.86 L 91.55 165.53 L 90.48 166.18 L 89.39 166.81 L 88.28 167.43 L 87.16 168.04 L 86.06 168.65 L 84.98 169.27 L 83.94 169.90 L 82.95 170.55 L 82.02 171.22 L 81.16 171.92 L 80.39 172.66 L 79.73 173.44 L 79.17 174.27 L 78.74 175.15 L 78.44 176.07 L 78.25 177.03 L 78.17 178.01 L 78.20 179.00 L 78.34 179.99 L 78.57 180.97 L 78.90 181.93 L 79.32 182.85 L 79.83 183.73 L 80.42 184.55 L 81.08 185.31 L 81.82 186.01 L 82.62 186.64 L 83.49 187.21 L 84.41 187.72 L 85.39 188.18 L 86.42 188.58 L 87.50 188.94 L 88.62 189.24 L 89.77 189.50 L 90.96 189.72 L 92.17 189.90 L 93.41 190.04 L 94.67 190.14 L 95.94 190.21 L 97.22 190.25 L 98.51 190.26 L 99.80 190.25 L 101.09 190.22 L 102.37 190.16 L 103.63 190.09 L 104.89 190.00 L 106.12 189.90 L 107.34 189.77 L 108.54 189.63 L 109.73 189.47 L 110.90 189.29 L 112.06 189.09 L 113.19 188.87 L 114.31 188.62 L 115.41 188.34 L 116.50 188.05 L 117.57 187.72 L 118.62 187.37 L 119.65 186.99 L 120.66 186.58 L 121.66 186.14 L 122.63 185.67 L 123.59 185.17 L 124.53 184.63 L 125.45 184.06 L 126.35 183.45 L 127.23 182.81 L 128.09 182.13 L 128.93 181.42 L 129.75 180.67 L 130.54 179.90 L 131.32 179.09 L 132.07 178.26 L 132.81 177.40 L 133.51 176.51 L 134.20 175.59 L 134.86 174.66 L 135.49 173.70 L 136.10 172.72 L 136.69 171.72 L 137.25 170.70 L 137.78 169.66 L 138.29 168.61 L 138.77 167.54 L 139.22 166.46 L 139.64 165.37 L 140.03 164.27 L 140.40 163.16 L 140.73 162.04 L 141.04 160.91 L 141.31 159.78 L 141.56 158.64 L 141.77 157.50 L 141.96 156.35 L 142.11 155.20 L 142.24 154.04 L 142.34 152.89 L 142.40 151.72 L 142.44 150.56 L 142.46 149.40 L 142.44 148.23 L 142.40 147.07 L 142.33 145.90 L 142.23 144.74 L 142.11 143.57 L 141.95 142.41 L 141.78 141.25 L 141.57 140.09 L 141.34 138.94 L 141.08 137.79 L 140.80 136.64 L 140.48 135.51 L 140.13 134.40 L 139.73 133.31 L 139.29 132.24 L 138.80 131.22 L 138.25 130.24 L 137.64 129.30 L 136.96 128.42 L 136.21 127.59 L 135.39 126.83 L 134.50 126.14 L 133.53 125.53 L 132.51 124.99 L 131.44 124.54 L 130.34 124.17 L 129.22 123.90 L 128.08 123.72 L 126.94 123.63 L 125.81 123.65 L 124.71 123.77 L 123.63 124.01 Z"/>
<path d="M 23.82 118.12 L 22.99 118.54 L 22.23 119.10 L 21.54 119.81 L 20.93 120.63 L 20.39 121.55 L 19.92 122.55 L 19.53 123.63 L 19.22 124.75 L 18.98 125.90 L 18.83 127.07 L 18.75 128.24 L 18.76 129.39 L 18.85 130.52 L 19.00 131.64 L 19.22 132.73 L 19.50 133.82 L 19.83 134.90 L 20.21 135.96 L 20.62 137.02 L 21.07 138.08 L 21.54 139.14 L 22.03 140.20 L 22.54 141.25 L 23.06 142.31 L 23.60 143.37 L 24.15 144.43 L 24.72 145.48 L 25.31 146.53 L 25.91 147.57 L 26.53 148.60 L 27.17 149.62 L 27.82 150.63 L 28.49 151.63 L 29.18 152.61 L 29.88 153.58 L 30.61 154.53 L 31.35 155.46 L 32.10 156.37 L 32.88 157.26 L 33.67 158.13 L 34.49 158.97 L 35.32 159.79 L 36.17 160.58 L 37.04 161.34 L 37.93 162.06 L 38.83 162.76 L 39.76 163.43 L 40.71 164.06 L 41.67 164.65 L 42.65 165.21 L 43.65 165.74 L 44.66 166.23 L 45.69 166.69 L 46.74 167.11 L 47.79 167.50 L 48.86 167.86 L 49.94 168.18 L 51.03 168.46 L 52.12 168.72 L 53.23 168.94 L 54.34 169.12 L 55.46 169.27 L 56.59 169.39 L 57.72 169.47 L 58.85 169.52 L 59.99 169.54 L 61.13 169.52 L 62.26 169.47 L 63.40 169.38 L 64.54 169.26 L 65.68 169.11 L 66.81 168.92 L 67.94 168.70 L 69.07 168.45 L 70.19 168.17 L 71.30 167.85 L 72.40 167.49 L 73.50 167.11 L 74.59 166.69 L 75.67 166.24 L 76.73 165.75 L 77.79 165.23 L 78.83 164.68 L 79.86 164.10 L 80.87 163.48 L 81.87 162.83 L 82.85 162.15 L 83.81 161.43 L 84.76 160.68 L 85.68 159.90 L 86.59 159.09 L 87.47 158.24 L 88.33 157.36 L 89.16 156.46 L 89.96 155.53 L 90.72 154.58 L 91.45 153.61 L 92.13 152.62 L 92.77 151.61 L 93.35 150.60 L 93.88 149.57 L 94.36 148.54 L 94.77 147.50 L 95.12 146.46 L 95.41 145.42 L 95.62 144.38 L 95.75 143.35 L 95.81 142.32 L 95.79 141.31 L 95.68 140.31 L 95.48 139.32 L 95.19 138.35 L 94.81 137.40 L 94.32 136.48 L 93.73 135.58 L 93.05 134.71 L 92.28 133.88 L 91.43 133.09 L 90.51 132.35 L 89.52 131.67 L 88.49 131.05 L 87.40 130.49 L 86.28 130.01 L 85.14 129.61 L 83.97 129.29 L 82.79 129.06 L 81.60 128.92 L 80.42 128.87 L 79.23 128.90 L 78.04 128.98 L 76.84 129.11 L 75.65 129.28 L 74.45 129.47 L 73.25 129.67 L 72.04 129.86 L 70.84 130.04 L 69.63 130.20 L 68.42 130.33 L 67.21 130.43 L 66.00 130.50 L 64.80 130.54 L 63.59 130.56 L 62.39 130.55 L 61.20 130.51 L 60.02 130.44 L 58.84 130.34 L 57.67 130.22 L 56.51 130.06 L 55.36 129.88 L 54.22 129.67 L 53.09 129.43 L 51.98 129.15 L 50.89 128.85 L 49.81 128.52 L 48.75 128.16 L 47.71 127.77 L 46.69 127.34 L 45.68 126.89 L 44.69 126.41 L 43.70 125.91 L 42.72 125.39 L 41.74 124.85 L 40.75 124.29 L 39.75 123.71 L 38.74 123.12 L 37.71 122.53 L 36.66 121.92 L 35.58 121.32 L 34.47 120.71 L 33.34 120.12 L 32.21 119.57 L 31.07 119.06 L 29.94 118.62 L 28.83 118.25 L 27.74 117.98 L 26.69 117.81 L 25.68 117.77 L 24.72 117.87 L 23.82 118.12 Z"/>
  </g>
  <text x="225" y="135" font-size="86" fill="#000000">Dawn AI</text>
</svg>